# File created by Blade
# Date/Time:  Wed Apr 08 17:20:14 2015
#---------------------------------------------------------
:version 1.10
:name HOM
:units
  mass 1.0
  length 1.000000
  angle deg
:documentation
     Acclaim Skeleton File
:root
   axis xyz
   order TX TY TZ RX RY RZ
   position 0.000000 0.000000 0.000000
   orientation 0 0 0
:bonedata
   begin
      id 1
      name Spine_dum
      direction 0.000000 1.000000 0.000000
      length 5.893853
      axis 0.0 0.0 0.0 xyz
   end
   begin
      id 2
      name LeftUpLeg_dum
      direction 1.000000 0.000000 0.000000
      length 3.697939
      axis 0.0 0.0 0.0 xyz
   end
   begin
      id 3
      name RightUpLeg_dum
      direction -1.000000 0.000000 0.000000
      length 3.697939
      axis 0.0 0.0 0.0 xyz
   end
   begin
      id 4
      name Spine
      direction 0.000000 1.000000 0.000000
      length 0.000000
      axis 0.0 0.0 0.0 xyz
      dof rx ry rz
   end
   begin
      id 5
      name Spine_dum1
      direction 0.000000 1.000000 0.000000
      length 16.447146
      axis 0.0 0.0 0.0 xyz
   end
   begin
      id 6
      name Spine_dum2
      direction 0.000000 1.000000 0.000000
      length 10.900383
      axis 0.0 0.0 0.0 xyz
   end
   begin
      id 7
      name Spine_dum3
      direction 0.000000 1.000000 0.000000
      length 10.900383
      axis 0.0 0.0 0.0 xyz
   end
   begin
      id 8
      name Head
      direction 0.000000 1.000000 0.000000
      length 4.527550
      axis 0.0 0.0 0.0 xyz
      dof rx ry rz
   end
   begin
      id 9
      name LeftShoulder
      direction 1.000000 0.000000 0.000000
      length 8.219464
      axis 0.0 0.0 -90.0 xyz
      dof rx ry rz
   end
   begin
      id 10
      name LeftArm
      direction 1.000000 0.000000 0.000000
      length 11.094937
      axis 0.0 0.0 -90.0 xyz
      dof rx ry rz
   end
   begin
      id 11
      name LeftForeArm
      direction 1.000000 0.000000 0.000000
      length 9.103875
      axis 0.0 0.0 -90.0 xyz
      dof ry rz rx
   end
   begin
      id 12
      name LeftHand
      direction 0.000000 0.000000 0.000000
      length 0.000000
      axis 0.0 0.0 -90.0 xyz
      dof rx ry rz
   end
   begin
      id 13
      name LeftHand_dum1
      direction 0.000000 0.000000 0.000000
      length 0.000000
      axis 0.0 0.0 -90.0 xyz
   end
   begin
      id 14
      name LeftHand_dum2
      direction 1.000000 0.000000 0.000000
      length 3.937000
      axis 0.0 0.0 -90.0 xyz
   end
   begin
      id 15
      name LeftHandThumb1
      direction 0.000000 0.000000 1.000000
      length 3.937000
      axis 0.0 0.0 -90.0 xyz
      dof rx rz ry
   end
   begin
      id 16
      name RightShoulder
      direction -1.000000 0.000000 0.000000
      length 8.219464
      axis 0.0 0.0 90.0 xyz
      dof rx ry rz
   end
   begin
      id 17
      name RightArm
      direction -1.000000 0.000000 0.000000
      length 11.094937
      axis 0.0 0.0 90.0 xyz
      dof rx ry rz
   end
   begin
      id 18
      name RightForeArm
      direction -1.000000 0.000000 0.000000
      length 9.103875
      axis 0.0 0.0 90.0 xyz
      dof ry rz rx
   end
   begin
      id 19
      name RightHand
      direction 0.000000 0.000000 0.000000
      length 0.000000
      axis 0.0 0.0 90.0 xyz
      dof rx ry rz
   end
   begin
      id 20
      name RightHand_dum1
      direction 0.000000 0.000000 0.000000
      length 0.000000
      axis 0.0 0.0 90.0 xyz
   end
   begin
      id 21
      name RightHand_dum2
      direction -1.000000 0.000000 0.000000
      length 3.937000
      axis 0.0 0.0 90.0 xyz
   end
   begin
      id 22
      name RightHandThumb1
      direction 0.000000 0.000000 1.000000
      length 3.937000
      axis 0.0 0.0 90.0 xyz
      dof rx rz ry
   end
   begin
      id 23
      name LeftUpLeg
      direction 0.000000 -1.000000 0.000000
      length 16.181467
      axis 0.0 0.0 0.0 xyz
      dof rx ry rz
   end
   begin
      id 24
      name LeftLeg
      direction 0.000000 -1.000000 0.000000
      length 16.501392
      axis 0.0 0.0 0.0 xyz
      dof rx ry rz
   end
   begin
      id 25
      name LeftFoot
      direction 0.000000 -0.258819 0.965926
      length 6.408245
      axis 15.0 0.0 0.0 xyz
      dof rx ry rz
   end
   begin
      id 26
      name LeftToeBase
      direction 0.000000 0.000000 1.000000
      length 2.952750
      axis 0.0 0.0 0.0 xyz
      dof rx ry rz
   end
   begin
      id 27
      name RightUpLeg
      direction 0.000000 -1.000000 0.000000
      length 16.181467
      axis 0.0 0.0 0.0 xyz
      dof rx ry rz
   end
   begin
      id 28
      name RightLeg
      direction 0.000000 -1.000000 0.000000
      length 16.501392
      axis 0.0 0.0 0.0 xyz
      dof rx ry rz
   end
   begin
      id 29
      name RightFoot
      direction 0.000000 -0.258819 0.965926
      length 6.408245
      axis 15.0 0.0 0.0 xyz
      dof rx ry rz
   end
   begin
      id 30
      name RightToeBase
      direction 0.000000 0.000000 1.000000
      length 2.952750
      axis 0.0 0.0 0.0 xyz
      dof rx ry rz
   end
:hierarchy
   begin
      root Spine_dum LeftUpLeg_dum RightUpLeg_dum
      Spine_dum Spine
      LeftUpLeg_dum LeftUpLeg
      RightUpLeg_dum RightUpLeg
      Spine Spine_dum1 Spine_dum2 Spine_dum3
      Spine_dum1 Head
      Spine_dum2 LeftShoulder
      Spine_dum3 RightShoulder
      LeftShoulder LeftArm
      LeftArm LeftForeArm
      LeftForeArm LeftHand
      LeftHand LeftHand_dum1 LeftHand_dum2
      LeftHand_dum1 LeftHandThumb1
      RightShoulder RightArm
      RightArm RightForeArm
      RightForeArm RightHand
      RightHand RightHand_dum1 RightHand_dum2
      RightHand_dum1 RightHandThumb1
      LeftUpLeg LeftLeg
      LeftLeg LeftFoot
      LeftFoot LeftToeBase
      RightUpLeg RightLeg
      RightLeg RightFoot
      RightFoot RightToeBase
   end

# File created by Blade
# Date/Time:  Wed Apr 08 17:19:54 2015
# Frame Rate: 120.000 fps
#------------------------------------------------------
:FULLY-SPECIFIED
:DEGREES
478
root 4.806054 36.759652 0.804727 -4.304416 -25.945554 -11.256660
Spine 9.447406 3.197478 2.521908
Head 20.784394 26.347131 16.442794
LeftShoulder -7.526560 17.640514 13.881668
LeftArm 18.319516 31.344311 -73.631261
LeftForeArm 29.333997 -0.000000 21.541750
LeftHand -10.465810 -0.000000 -16.277852
LeftHandThumb1 -26.253704 0.000000 33.147579
RightShoulder -30.130708 -48.132958 23.302459
RightArm 58.096558 -18.915964 49.559859
RightForeArm 29.697383 -0.000000 6.987979
RightHand -6.810382 -0.000000 16.832953
RightHandThumb1 -24.326973 -0.000000 -32.862282
LeftUpLeg 12.800694 8.297279 9.261177
LeftLeg 9.729573 -0.000000 -0.000000
LeftFoot -12.939543 -18.179051 -11.716760
LeftToeBase 15.804043 -0.000000 -0.000000
RightUpLeg -36.024898 8.678427 -19.520918
RightLeg 153.879205 -0.000000 -0.000000
RightFoot 7.756322 15.471005 4.753920
RightToeBase 3.919773 -0.000000 -0.000000
479
root 4.758511 36.776935 0.794104 -4.291398 -25.931985 -11.502565
Spine 9.559104 3.389011 2.490009
Head 20.804175 26.288501 16.596081
LeftShoulder -7.601863 17.704082 13.852465
LeftArm 18.154381 31.257880 -73.586916
LeftForeArm 29.294966 -0.000000 21.435219
LeftHand -10.383135 -0.000000 -16.103014
LeftHandThumb1 -26.253704 0.000000 33.147579
RightShoulder -30.109282 -48.168632 23.310106
RightArm 58.180679 -18.922128 49.581295
RightForeArm 29.785831 -0.000000 6.864505
RightHand -6.746198 0.000000 16.779513
RightHandThumb1 -24.326973 -0.000000 -32.862282
LeftUpLeg 12.865471 8.167845 9.502502
LeftLeg 9.790429 -0.000000 -0.000000
LeftFoot -13.020178 -17.896319 -11.555636
LeftToeBase 16.416858 -0.000000 -0.000000
RightUpLeg -35.993827 8.748075 -19.464603
RightLeg 153.891138 -0.000000 -0.000000
RightFoot 7.409615 15.196932 4.464385
RightToeBase 3.827508 -0.000000 -0.000000
480
root 4.712399 36.793370 0.780997 -4.234327 -25.908337 -11.734149
Spine 9.612301 3.552142 2.442057
Head 20.829297 26.243212 16.748402
LeftShoulder -7.656472 17.732979 13.824336
LeftArm 17.887144 31.066296 -73.617345
LeftForeArm 29.380571 -0.000000 21.398230
LeftHand -10.309304 -0.000000 -16.154205
LeftHandThumb1 -26.253704 0.000000 33.147579
RightShoulder -30.044278 -48.161605 23.269103
RightArm 58.184703 -18.953386 49.677504
RightForeArm 29.739300 -0.000000 6.774514
RightHand -6.686316 -0.000000 16.686998
RightHandThumb1 -24.326973 -0.000000 -32.862282
LeftUpLeg 12.844897 8.037699 9.734312
LeftLeg 9.906544 -0.000000 -0.000000
LeftFoot -13.102187 -17.663243 -11.426874
LeftToeBase 17.133567 -0.000000 -0.000000
RightUpLeg -36.018662 8.775526 -19.390242
RightLeg 153.890378 -0.000000 -0.000000
RightFoot 7.071544 14.959863 4.266811
RightToeBase 3.706161 -0.000000 -0.000000
481
root 4.667557 36.810220 0.769517 -4.193499 -25.895449 -11.951927
Spine 9.667401 3.700152 2.404258
Head 20.881035 26.207965 16.871775
LeftShoulder -7.713510 17.810746 13.758284
LeftArm 17.697544 30.947753 -73.554260
LeftForeArm 29.178899 -0.000000 21.408267
LeftHand -10.492010 0.000000 -16.131222
LeftHandThumb1 -26.253704 0.000000 33.147579
RightShoulder -30.058600 -48.185598 23.280655
RightArm 58.260246 -18.980372 49.746560
RightForeArm 29.790117 -0.000000 6.686007
RightHand -6.705128 -0.000000 16.571561
RightHandThumb1 -24.326973 -0.000000 -32.862282
LeftUpLeg 12.941957 8.056889 10.007080
LeftLeg 9.835014 -0.000000 -0.000000
LeftFoot -13.068018 -17.611627 -11.284245
LeftToeBase 17.644939 -0.000000 -0.000000
RightUpLeg -36.038947 8.794392 -19.309030
RightLeg 153.913999 -0.000000 -0.000000
RightFoot 6.730441 14.813317 3.830446
RightToeBase 3.144230 -0.000000 -0.000000
482
root 4.622133 36.826943 0.756622 -4.146278 -25.885656 -12.171953
Spine 9.718498 3.840375 2.371389
Head 20.946106 26.200409 16.996512
LeftShoulder -7.771230 17.877558 13.707943
LeftArm 17.544611 30.880383 -73.474072
LeftForeArm 29.155201 -0.000000 21.374285
LeftHand -10.474264 0.000000 -16.138636
LeftHandThumb1 -26.253704 0.000000 33.147579
RightShoulder -30.015395 -48.171866 23.263643
RightArm 58.265517 -18.998136 49.884502
RightForeArm 29.695891 0.000000 6.570152
RightHand -6.569856 -0.000000 16.528870
RightHandThumb1 -24.326973 -0.000000 -32.862282
LeftUpLeg 13.038066 8.015472 10.282179
LeftLeg 9.751645 -0.000000 -0.000000
LeftFoot -13.024930 -17.628999 -11.260109
LeftToeBase 17.926075 -0.000000 -0.000000
RightUpLeg -36.048347 8.851089 -19.188327
RightLeg 153.934921 -0.000000 -0.000000
RightFoot 6.373114 14.765590 3.739596
RightToeBase 3.161207 -0.000000 -0.000000
483
root 4.580337 36.842007 0.742067 -4.060355 -25.871315 -12.361102
Spine 9.707254 3.960202 2.311863
Head 21.010515 26.236525 17.119304
LeftShoulder -7.815275 17.934762 13.681259
LeftArm 17.353835 30.789988 -73.461225
LeftForeArm 29.298384 0.000000 21.320880
LeftHand -10.443531 -0.000000 -16.172659
LeftHandThumb1 -26.253704 0.000000 33.147579
RightShoulder -29.996132 -48.172793 23.286642
RightArm 58.275637 -18.992340 49.991071
RightForeArm 29.671568 -0.000000 6.499515
RightHand -6.680242 -0.000000 16.483605
RightHandThumb1 -24.326973 -0.000000 -32.862282
LeftUpLeg 12.998684 7.799495 10.477660
LeftLeg 9.816449 -0.000000 -0.000000
LeftFoot -13.051675 -17.560905 -11.344733
LeftToeBase 18.335125 -0.000000 -0.000000
RightUpLeg -36.128924 8.871835 -19.115541
RightLeg 153.971387 -0.000000 -0.000000
RightFoot 6.034117 14.758682 3.719925
RightToeBase 3.294234 -0.000000 -0.000000
484
root 4.538756 36.857513 0.727838 -3.956089 -25.859494 -12.572198
Spine 9.677280 4.067687 2.298400
Head 21.107677 26.260177 17.215971
LeftShoulder -7.834720 17.991164 13.632008
LeftArm 17.194149 30.758804 -73.413350
LeftForeArm 29.420317 -0.000000 21.225608
LeftHand -10.475634 -0.000000 -16.087724
LeftHandThumb1 -26.253704 0.000000 33.147579
RightShoulder -29.958593 -48.166528 23.282193
RightArm 58.263816 -19.023413 50.091338
RightForeArm 29.580023 -0.000000 6.444343
RightHand -6.628620 -0.000000 16.398543
RightHandThumb1 -24.326973 -0.000000 -32.862282
LeftUpLeg 13.010154 7.688644 10.735138
LeftLeg 9.773366 -0.000000 -0.000000
LeftFoot -12.991824 -17.639070 -11.442934
LeftToeBase 18.695965 -0.000000 -0.000000
RightUpLeg -36.209925 8.870808 -18.982067
RightLeg 153.993451 -0.000000 -0.000000
RightFoot 5.805161 14.789968 3.805519
RightToeBase 3.295644 -0.000000 -0.000000
